<?xml version="1.0" encoding="UTF-8" standalone="no" ?>
<!DOCTYPE svg PUBLIC "-//W3C//DTD SVG 1.1//EN" "http://www.w3.org/Graphics/SVG/1.1/DTD/svg11.dtd">
<svg xmlns="http://www.w3.org/2000/svg" xmlns:xlink="http://www.w3.org/1999/xlink" version="1.1" width="1280" height="1024" viewBox="0 0 1280 1024" xml:space="preserve">
<desc>Created with Fabric.js 5.3.0</desc>
<defs>
</defs>
<g transform="matrix(1 0 0 1 640 512)" id="background-logo"  >
<rect style="stroke: none; stroke-width: 0; stroke-dasharray: none; stroke-linecap: butt; stroke-dashoffset: 0; stroke-linejoin: miter; stroke-miterlimit: 4; fill: rgb(255,255,255); fill-opacity: 0; fill-rule: nonzero; opacity: 1;"  paint-order="stroke"  x="-640" y="-512" rx="0" ry="0" width="1280" height="1024" />
</g>
<g transform="matrix(3.0172067201726867 0 0 3.017206720172686 640 512.0000000000001)" id="logo-logo"  >
<g style=""  paint-order="stroke"   >
		<g transform="matrix(0.5059927515398249 0 0 0.5059927515398249 -21.18376765695524 136.15446842206177)"  >
<linearGradient id="SVGID_1633598" gradientUnits="userSpaceOnUse" gradientTransform="matrix(1 0 0 1 -16.077575699999983 -15.290710450000006)"  x1="16.077575699999983" y1="0" x2="16.077575699999983" y2="30.581420900000012">
<stop offset="0%" style="stop-color:rgb(255,0,22);stop-opacity: 1"/>
<stop offset="100%" style="stop-color:rgb(159,4,27);stop-opacity: 1"/>
</linearGradient>
<polygon style="stroke: none; stroke-width: 1; stroke-dasharray: none; stroke-linecap: butt; stroke-dashoffset: 0; stroke-linejoin: miter; stroke-miterlimit: 4; fill: url(#SVGID_1633598); fill-rule: nonzero; opacity: 1;"  paint-order="stroke"  points="0,-15.290710450000006 3.795410199999992,-3.6096191499999577 16.077575699999954,-3.6096191499999577 6.141082799999992,3.6096191500000714 9.936492899999962,15.290710450000006 0,8.071411150000017 -9.936492900000019,15.290710450000006 -6.141082700000027,3.6096191500000714 -16.07757570000001,-3.6096191499999577 -3.7954101000000264,-3.6096191499999577 " />
</g>
		<g transform="matrix(0.5059927515398249 0 0 0.5059927515398249 22.421417780738295 136.15446842206177)"  >
<linearGradient id="SVGID_1633599" gradientUnits="userSpaceOnUse" gradientTransform="matrix(1 0 0 1 -16.07760619999999 -15.290710450000006)"  x1="16.07760619999999" y1="0" x2="16.07760619999999" y2="30.581420900000012">
<stop offset="0%" style="stop-color:rgb(255,0,22);stop-opacity: 1"/>
<stop offset="100%" style="stop-color:rgb(159,4,27);stop-opacity: 1"/>
</linearGradient>
<polygon style="stroke: none; stroke-width: 1; stroke-dasharray: none; stroke-linecap: butt; stroke-dashoffset: 0; stroke-linejoin: miter; stroke-miterlimit: 4; fill: url(#SVGID_1633599); fill-rule: nonzero; opacity: 1;"  paint-order="stroke"  points="-0.00003059999994547979,-15.290710450000006 -3.7953797000000122,-3.6096191499999577 -16.07760619999999,-3.6096191499999577 -6.141082799999936,3.6096191500000714 -9.936492999999928,15.290710450000006 -0.00003059999994547979,8.071411150000017 9.936492900000076,15.290710450000006 6.141082700000084,3.6096191500000714 16.07760619999999,-3.6096191499999577 3.7953796000000466,-3.6096191499999577 " />
</g>
		<g transform="matrix(0.5059927515398249 0 0 0.5059927515398249 0.6188327782809893 136.1544684473614)"  >
<linearGradient id="SVGID_1633600" gradientUnits="userSpaceOnUse" gradientTransform="matrix(1 0 0 1 -24.079910300000023 -22.90136719999998)"  x1="24.079910300000023" y1="0" x2="24.079910300000023" y2="45.80273439999996">
<stop offset="0%" style="stop-color:rgb(255,0,22);stop-opacity: 1"/>
<stop offset="100%" style="stop-color:rgb(159,4,27);stop-opacity: 1"/>
</linearGradient>
<polygon style="stroke: none; stroke-width: 1; stroke-dasharray: none; stroke-linecap: butt; stroke-dashoffset: 0; stroke-linejoin: miter; stroke-miterlimit: 4; fill: url(#SVGID_1633600); fill-rule: nonzero; opacity: 1;"  paint-order="stroke"  points="-0.0000152999999727399,-22.90136719999998 5.684463499999993,-5.40625 24.07991030000005,-5.40625 9.19767760000002,5.40625 14.882156399999985,22.90136719999998 -0.0000152999999727399,12.088806099999942 -14.882217400000002,22.90136719999998 -9.1977081,5.40625 -24.079910299999995,-5.40625 -5.684493999999972,-5.40625 " />
</g>
		<g transform="matrix(0.5059927515398249 0 0 0.5059927515398249 -57.081064210693796 130.81832027318637)"  >
<linearGradient id="SVGID_1633601" gradientUnits="userSpaceOnUse" gradientTransform="matrix(1 0 0 1 -51.333755499999995 -5.528259250000019)"  x1="51.333755499999995" y1="0" x2="51.333755499999995" y2="11.056518500000038">
<stop offset="0%" style="stop-color:rgb(255,0,22);stop-opacity: 1"/>
<stop offset="100%" style="stop-color:rgb(159,4,27);stop-opacity: 1"/>
</linearGradient>
<polygon style="stroke: none; stroke-width: 1; stroke-dasharray: none; stroke-linecap: butt; stroke-dashoffset: 0; stroke-linejoin: miter; stroke-miterlimit: 4; fill: url(#SVGID_1633601); fill-rule: nonzero; opacity: 1;"  paint-order="stroke"  points="51.333755499999995,-5.528259250000019 -51.333755499999995,-5.528259250000019 -28.167770399999995,5.528259250000019 51.333755499999995,5.528259250000019 " />
</g>
		<g transform="matrix(0.5059927515398249 0 0 0.5059927515398249 -48.22025373980034 141.49061659623692)"  >
<linearGradient id="SVGID_1633602" gradientUnits="userSpaceOnUse" gradientTransform="matrix(1 0 0 1 -33.82202149999998 -5.528259300000002)"  x1="33.82202149999998" y1="0" x2="33.82202149999998" y2="11.056518600000004">
<stop offset="0%" style="stop-color:rgb(255,0,22);stop-opacity: 1"/>
<stop offset="100%" style="stop-color:rgb(159,4,27);stop-opacity: 1"/>
</linearGradient>
<polygon style="stroke: none; stroke-width: 1; stroke-dasharray: none; stroke-linecap: butt; stroke-dashoffset: 0; stroke-linejoin: miter; stroke-miterlimit: 4; fill: url(#SVGID_1633602); fill-rule: nonzero; opacity: 1;"  paint-order="stroke"  points="33.822021500000005,-5.528259299999945 -33.82202149999995,-5.528259299999945 -10.656005899999968,5.528259300000059 33.822021500000005,5.528259300000059 " />
</g>
		<g transform="matrix(0.5059927515398249 0 0 0.5059927515398249 58.31870661808739 130.81832027318637)"  >
<linearGradient id="SVGID_1633603" gradientUnits="userSpaceOnUse" gradientTransform="matrix(1 0 0 1 -51.333770749999985 -5.528259250000019)"  x1="51.333770749999985" y1="0" x2="51.333770749999985" y2="11.056518500000038">
<stop offset="0%" style="stop-color:rgb(255,0,22);stop-opacity: 1"/>
<stop offset="100%" style="stop-color:rgb(159,4,27);stop-opacity: 1"/>
</linearGradient>
<polygon style="stroke: none; stroke-width: 1; stroke-dasharray: none; stroke-linecap: butt; stroke-dashoffset: 0; stroke-linejoin: miter; stroke-miterlimit: 4; fill: url(#SVGID_1633603); fill-rule: nonzero; opacity: 1;"  paint-order="stroke"  points="-51.333770749999985,-5.528259250000019 51.333770749999985,-5.528259250000019 28.167755149999948,5.528259250000019 -51.333770749999985,5.528259250000019 " />
</g>
		<g transform="matrix(0.5059927515398249 0 0 0.5059927515398249 49.45788843080447 141.49061659623692)"  >
<linearGradient id="SVGID_1633604" gradientUnits="userSpaceOnUse" gradientTransform="matrix(1 0 0 1 -33.822021500000005 -5.528259300000002)"  x1="33.822021500000005" y1="0" x2="33.822021500000005" y2="11.056518600000004">
<stop offset="0%" style="stop-color:rgb(255,0,22);stop-opacity: 1"/>
<stop offset="100%" style="stop-color:rgb(159,4,27);stop-opacity: 1"/>
</linearGradient>
<polygon style="stroke: none; stroke-width: 1; stroke-dasharray: none; stroke-linecap: butt; stroke-dashoffset: 0; stroke-linejoin: miter; stroke-miterlimit: 4; fill: url(#SVGID_1633604); fill-rule: nonzero; opacity: 1;"  paint-order="stroke"  points="-33.822021500000005,-5.528259299999945 33.822021500000005,-5.528259299999945 10.656005899999968,5.528259300000059 -33.822021500000005,5.528259300000059 " />
</g>
		<g transform="matrix(0.5059927515398249 0 0 0.5059927515398249 -11.87187107417202 -35.28977250744103)"  >
<linearGradient id="SVGID_1633605" gradientUnits="userSpaceOnUse" gradientTransform="matrix(1 0 0 1 192.86216749999988 250.91062341429392)"  x1="283.6753005999999" y1="0" x2="283.6753005999999" y2="358.69142718570606">
<stop offset="0%" style="stop-color:rgb(255,0,22);stop-opacity: 1"/>
<stop offset="100%" style="stop-color:rgb(159,4,27);stop-opacity: 1"/>
</linearGradient>
<path style="stroke: none; stroke-width: 1; stroke-dasharray: none; stroke-linecap: butt; stroke-dashoffset: 0; stroke-linejoin: miter; stroke-miterlimit: 4; fill: url(#SVGID_1633605); fill-rule: nonzero; opacity: 1;"  paint-order="stroke"  transform=" translate(-476.5374680999998, -430.25633700714695)" d="M 746.2232666 468.2527771 C 746.4486084 467.7245483 746.5718383999999 467.1569214 746.5718383999999 466.5738525 L 746.5726928999999 392.5479431 C 746.5726928999999 387.4944153 744.2578124999999 382.6573486 740.2206420999998 379.2778931 C 681.5875854999998 330.19262699999996 617.5392455999998 287.30899049999994 545.9105224999998 255.3903504 C 537.3742675999998 251.5867463 527.7866210999998 250.1647339 518.1790771999998 251.2799073 C 461.4978027999998 257.8666993 414.4335021999998 269.9024659 374.29751589999984 288.0765076 C 367.88537599999984 290.9787293 362.67282109999985 295.4220887 359.22280889999985 300.9258423 C 353.93597419999986 309.3595581 349.07369999999986 318.1004639 344.60363779999983 327.1371765 C 323.7200928999998 320.3670044 310.9465332999998 318.460144 289.3117371999998 321.4237366 C 287.2916565999998 321.700409 285.4370118999998 322.59094239999996 284.00006119999983 323.92398069999996 C 280.3024293999998 327.354248 273.59921279999986 335.2420044 270.41494769999986 349.44702149999995 C 267.9031373999999 360.65225219999996 270.6666261999999 367.28668209999995 273.62527479999983 370.9732056 C 275.4792176999998 373.2832337 279.3648072999998 372.81869509999996 280.4510804999998 370.1279297 C 283.6834107999998 362.12121579999996 290.3585511999998 345.8012085 296.06021139999984 333.2470398 C 297.1686708999998 330.80636599999997 299.7870179999998 329.2369385 302.66525289999987 329.30700679999995 C 311.81317159999986 329.52981559999995 325.0447389999999 330.57089229999997 340.6968995999999 335.33547969999995 C 325.80651869999986 367.82467649999995 316.62255879999987 397.6173401 311.8294679999999 437.1466369 C 310.9777528999999 444.17086789999996 315.8176881999999 450.6045837 322.7969056999999 451.76907339999997 C 351.2552796999999 456.51727289999997 407.51229879999994 458.4670409 446.7883607999999 457.5881652 C 480.3111268999999 457.5881652 508.3216859999999 433.5235595 510.5570069999999 402.8026733 C 512.4206544999998 377.1810302 516.8305665999999 347.0523071 524.1704713999999 310.177185 C 524.9750367999999 306.1354064 522.8341676999999 302.0746459 518.8762208999999 300.15948480000003 L 498.9055787999999 290.4957885 C 495.0471497999999 288.6287536 490.71063249999986 290.1947936 489.2231751999999 293.960144 C 479.6688538999999 318.145935 477.4572754999999 337.4416809 473.0363770999999 338.6646728 C 470.75296039999995 339.2963561 464.9368897999999 335.868103 462.7523804999999 328.3560485 C 459.6531372999999 317.69811999999996 462.0583802999999 297.95285029999997 467.5987244999999 286.31423939999996 C 472.5500183999999 275.91305529999994 477.6592713999999 271.84912099999997 487.5610962999999 273.95275869999995 C 500.06939709999995 276.61016839999996 516.4780274999999 286.52828969999996 528.0339966999999 291.4188841999999 C 529.6724243999998 283.7029417999999 531.4249878999999 275.7156981999999 533.2979737999999 267.4320677999999 C 534.1838380999999 263.5140379999999 538.3194581999999 261.2778929999999 542.0735474999999 262.7070006999999 C 563.8930664999999 271.0130919999999 634.7385866 301.8382262999999 739.1493532 385.1310118999999 C 741.4248659 386.9462279999999 742.6547853 389.67431629999993 742.6547853 392.4800719999999 L 742.6537476999999 462.4809264999999 C 742.6537476999999 463.4536437999999 742.0667725999999 464.3462523999999 741.1293336 464.7990111999999 L 737.8500978 466.3826903999999 C 736.9509279 448.9883116999999 730.0273439 447.5558776999999 727.8043825 447.5558776999999 C 718.3936769 447.5558776999999 717.6621096 464.95458989999986 717.6621096 470.2871093999999 C 717.6621096 472.2323913999999 717.7501223 474.1454772999999 717.9242556 476.0029601999999 L 650.4983523000001 508.5569762999999 C 649.9532473 485.13388059999994 642.5602419 462.31484979999993 628.9050906000001 462.31484979999993 C 614.7067263000001 462.31484979999993 607.2786868000001 486.98266599999994 607.2786868000001 511.34973139999994 C 607.2786868000001 517.4002075 607.7149661000001 523.2551268999999 608.5780032 528.7979736 L 533.2008059 565.1903685999999 C 524.1714479999999 569.5502928999999 514.0103151999999 571.668518 503.81323269999996 571.3078002 C 438.95230129999993 569.0324095999999 366.45120269999995 563.859619 320.48883079999996 542.7418212 C 318.25662249999993 541.7161864 316.80361959999993 539.6514281 316.70593289999994 537.3607787 C 316.39318879999996 530.0276488 316.2144167999999 524.7518309 316.14041169999996 517.6506347 C 316.14041169999996 517.6506347 365.19201689999994 526.9100341 416.00607329999997 530.2722778 C 419.52807649999994 530.5053710999999 419.00735499999996 527.868103 413.14328029999996 526.9884643 C 387.3645327 523.121704 343.51293969999995 517.2050781 330.29995749999995 511.24542230000003 L 322.19464129999994 490.6044921 C 321.66934219999996 489.2667235 320.72521989999996 488.1348876 319.50338759999994 487.3781432 L 313.90869159999994 483.9130248 L 308.63375869999993 468.3394164 C 307.6263123999999 487.26574700000003 307.1078797999999 516.9799804 307.99121109999993 537.6829223 C 308.2104493999999 542.8251951999999 311.42709369999994 547.4525755999999 316.3957825999999 549.8112792 L 192.86216749999988 594.5571898 L 196.72610489999988 609.6020506 L 570.2739869999998 609.6020506 C 570.2739869999998 609.6020506 731.9853516999998 485.60037209999996 760.2127686999997 467.8537596 L 746.2232666 468.2527771 z M 332.2668457 439.5467224 C 327.4148254 439.1119995 323.95074459999995 434.6459656 324.74377439999995 429.8395386 C 336.5481872 358.29483030000006 378.31787109999993 295.85971070000005 378.31787109999993 295.85971070000005 C 357.2748717999999 345.91302490000004 336.6438903999999 385.33560180000006 332.0340575999999 425.87597660000006 C 331.6528624999999 429.2283631000001 334.0662841999999 432.25833130000007 337.4110106999999 432.70150760000007 L 422.1923827999999 443.93609620000007 C 385.8630371 443.9360962 348.7530518 441.0238647 332.2668457 439.5467224 z M 313.5141907 494.8487244 L 315.9995423 504.15066529999996 L 320.3967591 509.18737789999994 L 313.5141907 508.04031369999996 L 313.5141907 494.8487244 z M 628.9046631 539.46698 C 626.9067383 539.46698 625.0369873 538.0441284000001 623.4327393 535.5736084 C 628.3192139 534.8412476 632.1956788 524.2775269 632.1956788 511.3492737 C 632.1956788 498.4208985 628.319214 487.85726930000004 623.4327393 487.1249695 C 625.0369873 484.6544495 626.9067383 483.2315674 628.9046631 483.2315674 C 634.8587036 483.2315674 639.6853638 495.820282 639.6853638 511.3492737 C 639.6853638 526.8782349 634.8587036 539.46698 628.9046631 539.46698 z M 727.4356079 482.5776672 C 727.0979004000001 482.5776672 726.7730713000001 482.3764953 726.4675293 482.011322 C 727.7460938 480.4821472 728.6721191 476.0103454 728.6721191 470.7270813 C 728.6721191 465.4438477 727.7460937000001 460.9720459 726.4675293 459.4428406 C 726.7730713 459.0776978 727.0979004000001 458.8765259 727.4356079 458.8765259 C 729.1876831000001 458.8765259 730.6079712000001 464.18219 730.6079712000001 470.7270813 C 730.6079712000001 477.2719726 729.1876831 482.5776672 727.4356079 482.5776672 z" stroke-linecap="round" />
</g>
		<g transform="matrix(0.5059927515398249 0 0 0.5059927515398249 -36.965325106591706 2.1002142216580637)"  >
<linearGradient id="SVGID_1633606" gradientUnits="userSpaceOnUse" gradientTransform="matrix(1 0 0 1 330.1417335960364 477.89096059999997)"  x1="96.8032177019818" y1="0" x2="96.8032177019818" y2="52.519378700000004">
<stop offset="0%" style="stop-color:rgb(255,0,22);stop-opacity: 1"/>
<stop offset="100%" style="stop-color:rgb(159,4,27);stop-opacity: 1"/>
</linearGradient>
<path style="stroke: none; stroke-width: 1; stroke-dasharray: none; stroke-linecap: butt; stroke-dashoffset: 0; stroke-linejoin: miter; stroke-miterlimit: 4; fill: url(#SVGID_1633606); fill-rule: nonzero; opacity: 1;"  paint-order="stroke"  transform=" translate(-426.94495129801817, -504.15064995)" d="M 459.8274536 498.0996704 C 410.2321777 498.0996704 372.71215820000003 494.4416809 332.9476929 489.45159909999995 C 329.8509217 489.06301879999995 327.7965699 490.62530519999996 335.2480164 491.98205559999997 C 351.23818969999996 494.89349359999994 385.74096679999997 502.79373159999994 450.21072389999995 506.0702209 L 427.55789189999996 530.2284545 C 429.65264899999994 530.2941283 500.64996339999993 530.4103393 500.64996339999993 530.4103393 L 523.748169 477.8909606 L 459.92703249999994 498.0996703 C 459.8938599 498.0996704 459.8605957 498.0996704 459.8274536 498.0996704 z M 476.160553 508.4631042 L 478.6637268 508.4631042 C 479.8494263 508.4631042 480.8428039 509.36050409999996 480.9629211 510.5401611 L 481.4053955 514.887268 C 481.5578308 516.3844604 482.7718811 517.5510863999999 484.2739563 517.6437377 L 492.0493469 518.1232909 C 493.26812739999997 518.1984862 494.2181701 519.2088622 494.2181701 520.4299926 L 494.2181701 522.5419310999999 L 478.2039184 522.5419310999999 C 477.07537840000003 522.5419310999999 476.1605529 521.6270751 476.1605529 520.4985350999999 L 476.1605529 508.4631042 z M 460.6975708 512.3632812 L 461.0679321 516.0010986 C 461.195404 517.2540283 462.2113952 518.2303466 463.4684143 518.3078613 L 469.97512820000003 518.7091675 C 470.9950562 518.7720337000001 471.79006960000004 519.6175537 471.79006960000004 520.6394654000001 L 471.79006960000004 522.4067994000001 L 458.388794 522.4067994000001 C 457.44439700000004 522.4067994000001 456.6788025 521.6412354 456.6788025 520.6968385 L 456.6788025 510.6251222 L 458.7735596 510.6251222 C 459.7658081 510.6251221 460.5970764 511.3761292 460.6975708 512.3632812 z" stroke-linecap="round" />
</g>
		<g transform="matrix(0.5059927515398249 0 0 0.5059927515398249 91.86779562832817 -66.64192447540455)"  >
<linearGradient id="SVGID_1633607" gradientUnits="userSpaceOnUse" gradientTransform="matrix(1 0 0 1 627.0131835000002 316.1603028296905)"  x1="54.546325699999954" y1="0" x2="54.546325699999954" y2="104.26874387030949">
<stop offset="0%" style="stop-color:rgb(255,0,22);stop-opacity: 1"/>
<stop offset="100%" style="stop-color:rgb(159,4,27);stop-opacity: 1"/>
</linearGradient>
<path style="stroke: none; stroke-width: 1; stroke-dasharray: none; stroke-linecap: butt; stroke-dashoffset: 0; stroke-linejoin: miter; stroke-miterlimit: 4; fill: url(#SVGID_1633607); fill-rule: nonzero; opacity: 1;"  paint-order="stroke"  transform=" translate(-681.5595092000001, -368.29467476484524)" d="M 716.4567261 415.6638489 C 716.4911499 404.975647 717.1424561 394.31695560000003 718.4194335999999 383.9427185 C 719.7965697999999 394.6797485 720.4985351999999 405.675415 720.5491943 416.6563721 L 736.1058349 420.4290467 L 736.1058349 394.235199 C 736.1058349 390.1729737 734.0193481 386.3487549 730.4761352 383.91723640000004 L 632.6981811 316.81594860000007 C 630.3529052 315.20651260000005 627.0131835000001 316.74365250000005 627.0131835000001 319.43255630000004 L 627.0131835000001 388.34347550000007 C 627.0131835000001 391.6611940000001 629.4464110000001 394.5627443000001 632.9390868 395.40969860000007 L 657.7750853 401.4327699000001 C 656.7150267 384.7518312000001 657.1963499 367.7898866000001 659.1984251 351.5259706000001 C 661.3275145 368.12725840000013 661.8413084 385.3452760000001 660.8258055 402.1726076000001 L 689.1763914 409.0480043000001 C 688.6967771000001 394.9646303000001 689.3034666000001 380.7927553000001 690.9873045 367.11441050000013 C 692.7887571 381.1609803000001 693.430908 395.64907850000014 692.9729612000001 409.96875010000014 L 716.4567261 415.6638489 z" stroke-linecap="round" />
</g>
		<g transform="matrix(0.5059927515398249 0 0 0.5059927515398249 35.55813187316471 -68.45670730235855)"  >
<linearGradient id="SVGID_1633608" gradientUnits="userSpaceOnUse" gradientTransform="matrix(1 0 0 1 526.509832870312 275.95063006317866)"  x1="43.76416169770323" y1="0" x2="43.76416169770323" y2="177.51493199571695">
<stop offset="0%" style="stop-color:rgb(255,0,22);stop-opacity: 1"/>
<stop offset="100%" style="stop-color:rgb(159,4,27);stop-opacity: 1"/>
</linearGradient>
<path style="stroke: none; stroke-width: 1; stroke-dasharray: none; stroke-linecap: butt; stroke-dashoffset: 0; stroke-linejoin: miter; stroke-miterlimit: 4; fill: url(#SVGID_1633608); fill-rule: nonzero; opacity: 1;"  paint-order="stroke"  transform=" translate(-570.2739945680153, -364.70809606103717)" d="M 536.536377 452.2230835 L 603.8206788 403.11416629999997 C 609.2266847 399.16845709999996 612.4320069 393.2118531 612.5612794 386.87094119999995 L 614.0363159999999 314.55252079999997 C 614.1077270999999 311.0503541 612.0963135999999 307.79046639999996 608.7884521999999 306.04730229999996 L 553.5498047 276.93753059999995 C 548.7971802 274.4328613999999 542.7662964 276.9221496999999 541.6561889999999 281.85034189999993 C 530.7858276999999 330.1089172999999 527.3469848999999 387.33724989999996 526.510376 447.7062378999999 C 526.4440918 452.4886169 532.4594727 455.1987305 536.536377 452.2230835 z M 597.5549927 381.4995728 C 601.9730225 371.05688480000003 603.9678345 316.1603089 603.9678345 316.1603089 C 603.9678345 316.1603089 607.71698 333.1678162 603.9678345 382.88513190000003 C 603.2073975 392.96954350000004 550.1479492 427.06564340000006 550.1479492 427.06564340000006 C 550.1479492 427.06564340000006 593.1369019 391.9422302 597.5549927 381.4995728 z" stroke-linecap="round" />
</g>
		<g transform="matrix(0.5059927515398249 0 0 0.5059927515398249 64.07003507661136 -18.578394483912945)"  >
<linearGradient id="SVGID_1633609" gradientUnits="userSpaceOnUse" gradientTransform="matrix(1 0 0 1 -109.57836915000001 -59.1235504)"  x1="109.57836915000001" y1="0" x2="109.57836915000001" y2="118.2471008">
<stop offset="0%" style="stop-color:rgb(255,0,22);stop-opacity: 1"/>
<stop offset="100%" style="stop-color:rgb(159,4,27);stop-opacity: 1"/>
</linearGradient>
<polygon style="stroke: none; stroke-width: 1; stroke-dasharray: none; stroke-linecap: butt; stroke-dashoffset: 0; stroke-linejoin: miter; stroke-miterlimit: 4; fill: url(#SVGID_1633609); fill-rule: nonzero; opacity: 1;"  paint-order="stroke"  points="-12.584289549999994,-19.34715269999998 109.36669915000004,-24.850906399999985 109.42639155000006,-30.57026669999999 -6.902221749999967,-39.62196349999999 4.138610850000077,-45.8159943 109.54046625000001,-33.68959050000001 109.57836915000007,-38.09181209999997 0.3907470500000727,-59.1235504 -86.55169684999998,1.274551400000007 -109.57836914999996,59.1235504 " />
</g>
		<g transform="matrix(0.5059927515398249 0 0 0.5059927515398249 131.82903958000463 14.741146385956597)"  >
<linearGradient id="SVGID_1633610" gradientUnits="userSpaceOnUse" gradientTransform="matrix(1 0 0 1 722.8883667 469.33135989999994)"  x1="37.64706425000003" y1="0" x2="37.64706425000003" y2="119.60345460000002">
<stop offset="0%" style="stop-color:rgb(255,0,22);stop-opacity: 1"/>
<stop offset="100%" style="stop-color:rgb(159,4,27);stop-opacity: 1"/>
</linearGradient>
<path style="stroke: none; stroke-width: 1; stroke-dasharray: none; stroke-linecap: butt; stroke-dashoffset: 0; stroke-linejoin: miter; stroke-miterlimit: 4; fill: url(#SVGID_1633610); fill-rule: nonzero; opacity: 1;"  paint-order="stroke"  transform=" translate(-760.5354309500001, -529.1330872)" d="M 795.5016479 469.3313599 L 722.8883667 588.3882447 C 729.9247437 588.5615845 736.7849121 588.7439575999999 743.4559937 588.9348145 L 798.1824952000001 469.3313599 L 795.5016479 469.3313599 z" stroke-linecap="round" />
</g>
		<g transform="matrix(0.5059927515398249 0 0 0.5059927515398249 -124.45638943857904 27.01652001366358)"  >
<linearGradient id="SVGID_1633611" gradientUnits="userSpaceOnUse" gradientTransform="matrix(1 0 0 1 203.73080450000003 538.027771)"  x1="50.30442810000001" y1="0" x2="50.30442810000001" y2="30.730590800000073">
<stop offset="0%" style="stop-color:rgb(255,0,22);stop-opacity: 1"/>
<stop offset="100%" style="stop-color:rgb(159,4,27);stop-opacity: 1"/>
</linearGradient>
<path style="stroke: none; stroke-width: 1; stroke-dasharray: none; stroke-linecap: butt; stroke-dashoffset: 0; stroke-linejoin: miter; stroke-miterlimit: 4; fill: url(#SVGID_1633611); fill-rule: nonzero; opacity: 1;"  paint-order="stroke"  transform=" translate(-254.03523260000003, -553.3930664000001)" d="M 303.4020691 538.027771 L 203.7308045 553.3818359 C 204.624527 558.5550537 205.6514283 563.6810302 206.8030701 568.7583618000001 L 304.3396607 540.9356689000001 L 303.4020691 538.027771 z" stroke-linecap="round" />
</g>
		<g transform="matrix(0.5059927515398249 0 0 0.5059927515398249 109.73302416920393 14.383856934708433)"  >
<linearGradient id="SVGID_1633612" gradientUnits="userSpaceOnUse" gradientTransform="matrix(1 0 0 1 653.0641479000001 469.3313598999999)"  x1="63.80264285000004" y1="0" x2="63.80264285000004" y2="118.1912231">
<stop offset="0%" style="stop-color:rgb(255,0,22);stop-opacity: 1"/>
<stop offset="100%" style="stop-color:rgb(159,4,27);stop-opacity: 1"/>
</linearGradient>
<path style="stroke: none; stroke-width: 1; stroke-dasharray: none; stroke-linecap: butt; stroke-dashoffset: 0; stroke-linejoin: miter; stroke-miterlimit: 4; fill: url(#SVGID_1633612); fill-rule: nonzero; opacity: 1;"  paint-order="stroke"  transform=" translate(-716.8667907500001, -528.4269714499999)" d="M 653.0641479 587.0392456 C 663.0480345999999 587.185791 672.8192749 587.347168 682.3609619 587.5225829999999 L 780.6694336 469.33135989999994 L 777.9885864 469.33135989999994 L 653.0641479 587.0392456 z" stroke-linecap="round" />
</g>
		<g transform="matrix(0.5059927515398249 0 0 0.5059927515398249 0 -52.04424518186124)"  >
<linearGradient id="SVGID_1633613" gradientUnits="userSpaceOnUse" gradientTransform="matrix(1 0 0 1 138.39080809999996 173.3204346)"  x1="361.60919190000016" y1="0" x2="361.6091918999999" y2="447.647644">
<stop offset="0%" style="stop-color:rgb(255,0,22);stop-opacity: 1"/>
<stop offset="100%" style="stop-color:rgb(159,4,27);stop-opacity: 1"/>
</linearGradient>
<path style="stroke: none; stroke-width: 1; stroke-dasharray: none; stroke-linecap: butt; stroke-dashoffset: 0; stroke-linejoin: miter; stroke-miterlimit: 4; fill: url(#SVGID_1633613); fill-rule: nonzero; opacity: 1;"  paint-order="stroke"  transform=" translate(-500, -397.1442566)" d="M 500 620.9680786 C 699.7112427 620.9680786 861.6091919 615.8793335 861.6091919 609.6019897 C 861.6091919 607.4816284 843.1333618 605.4969482 810.9717407 603.7981566999999 C 821.9360962 571.1723633 827.9025269 536.2727051 827.9025269 500 C 827.9025269 319.8684692 681.3545533 173.3204346 501.2229615 173.3204346 C 321.0913697 173.3204346 174.543457 319.8684692 174.543457 500 C 174.543457 536.2261963 180.4935913 571.083252 191.4310913 603.6730957 C 157.7887573 605.399231 138.3908081 607.4293822999999 138.3908081 609.6019897 C 138.3908081 615.8793335 300.2887573 620.9680786 500 620.9680786 z M 186.8016968 500 C 186.8016968 326.62689209999996 327.8507691 185.5786743 501.2229614 185.5786743 C 674.5960693 185.5786743 815.6442870999999 326.62689209999996 815.6442870999999 500 C 815.6442870999999 536.1246338 809.5075682999999 570.8396606 798.2420653999999 603.1731567 C 733.0604248 600.1913452 623.7976074 598.2359009 500 598.2359009 C 377.71514890000003 598.2359009 269.6122437 600.1439209 204.1672363 603.0643311 C 192.9257812 570.7615967 186.8016968 536.0842896 186.8016968 500 z" stroke-linecap="round" />
</g>
		<g transform="matrix(0.5059927515398249 0 0 0.5059927515398249 0 135.81776275594632)"  >
<linearGradient id="SVGID_1633614" gradientUnits="userSpaceOnUse" gradientTransform="matrix(1 0 0 1 138.39080810000002 710.1572266)"  x1="361.60919190000004" y1="0" x2="361.60919190000004" y2="116.52227779999998">
<stop offset="0%" style="stop-color:rgb(255,0,22);stop-opacity: 1"/>
<stop offset="100%" style="stop-color:rgb(159,4,27);stop-opacity: 1"/>
</linearGradient>
<path style="stroke: none; stroke-width: 1; stroke-dasharray: none; stroke-linecap: butt; stroke-dashoffset: 0; stroke-linejoin: miter; stroke-miterlimit: 4; fill: url(#SVGID_1633614); fill-rule: nonzero; opacity: 1;"  paint-order="stroke"  transform=" translate(-500.00000000000006, -768.4183654999999)" d="M 500 710.1572266 C 300.2887573 710.1572266 138.39080810000002 715.2460328 138.39080810000002 721.5233155 C 138.39080810000002 725.0511475 189.52484130000002 728.2035523 269.7661743 730.2883300999999 C 328.9641723 789.7864989999999 410.8604736 826.6795043999999 501.22296140000003 826.6795043999999 C 591.6187134 826.6795043999999 673.5416260000001 789.7590332 732.7446899 730.2223511 C 811.5394897 728.1373901999999 861.6091919 725.0141602 861.6091919 721.5233155 C 861.6091919 715.2460327 699.7112427 710.1572266 500 710.1572266 z M 501.2229614 814.4212646 C 418.9488525 814.4212646 343.97210689999997 782.6386718 287.87640379999993 730.729248 C 347.4627075 732.0880737 420.7530518 732.8894653 500 732.8894653 C 580.3630371 732.8894653 654.5992432 732.0653076 714.6316528 730.6714476999999 C 658.5293579 782.6149292 583.527832 814.4212646 501.2229614 814.4212646 z" stroke-linecap="round" />
</g>
</g>
</g>
<g transform="matrix(1.920309433707568 0 0 1.920309433707568 640.9185673746177 761.5314599046874)" id="text-logo"  >
<g style=""  paint-order="stroke"   >
		<g transform="matrix(1 0 0 1 0 0)" id="text-logo-path-0"  >
<filter id="SVGID_1633580" y="-32.02404809619239%" height="164.04809619238478%" x="-20%" width="140%" >
	<feGaussianBlur in="SourceAlpha" stdDeviation="0"></feGaussianBlur>
	<feOffset dx="0" dy="3" result="oBlur" ></feOffset>
	<feFlood flood-color="rgb(255,0,0)" flood-opacity="1"/>
	<feComposite in2="oBlur" operator="in" />
	<feMerge>
		<feMergeNode></feMergeNode>
		<feMergeNode in="SourceGraphic"></feMergeNode>
	</feMerge>
</filter>
<path style="stroke: rgb(35,35,35); stroke-width: 6; stroke-dasharray: none; stroke-linecap: butt; stroke-dashoffset: 0; stroke-linejoin: miter; stroke-miterlimit: 4; fill: rgb(255,255,255); fill-rule: nonzero; opacity: 1;filter: url(#SVGID_1633580);"  paint-order="stroke"  transform=" translate(-287.78999999999996, 12.475)" d="M 7.35 0 L 2.44 0 L 2.44 -24.88 L 7.45 -24.88 L 14.87 -17.43 L 22.34 -24.88 L 27.33 -24.88 L 27.33 0 L 22.34 0 L 22.34 -17.81 L 18.34 -13.89 L 18.44 -13.89 L 14.87 -10.39 L 7.35 -17.81 Z M 36.07 -16.17 C 36.07 -20.95 39.93 -24.85 44.75 -24.85 L 52.24 -24.85 C 57.02 -24.85 60.92 -20.99 60.92 -16.17 L 60.92 -8.68 C 60.92 -3.9 57.06 0 52.24 0 L 44.75 0 C 39.97 0 36.07 -3.86 36.07 -8.68 Z M 40.98 -8.68 C 40.98 -6.63 42.64 -5.01 44.75 -5.01 L 52.24 -5.01 C 54.34 -5.01 55.91 -6.58 55.91 -8.68 L 55.91 -16.17 C 55.91 -18.29 54.29 -19.94 52.24 -19.94 L 44.75 -19.94 C 43.68 -19.94 42.82 -19.5 42.12 -18.8 C 41.42 -18.1 40.98 -17.24 40.98 -16.17 Z M 87.05 -0.03 L 69.62 -0.03 L 69.62 -24.92 L 87.05 -24.92 C 91.25 -24.92 94.5 -21.67 94.5 -17.47 C 94.5 -15.5 93.8 -13.86 92.58 -12.49 C 93.8 -11.19 94.5 -9.45 94.5 -7.49 C 94.5 -3.35 91.29 -0.03 87.05 -0.03 Z M 74.52 -5.04 L 87.05 -5.04 C 87.75 -5.04 88.35 -5.28 88.81 -5.74 C 89.27 -6.2 89.51 -6.78 89.51 -7.49 C 89.51 -8.92 88.47 -9.98 87.05 -9.98 L 74.52 -9.98 Z M 74.52 -14.99 L 87.05 -14.99 C 87.75 -14.99 88.35 -15.23 88.81 -15.69 C 89.27 -16.29 89.51 -16.88 89.51 -17.47 C 89.51 -18.85 88.36 -20.01 87.05 -20.01 L 74.52 -20.01 Z M 108.18 0 L 103.24 0 L 103.24 -24.92 L 108.18 -24.92 Z M 142.14 0 L 117.2 0 L 117.2 -24.92 L 122.14 -24.92 L 122.14 -5.04 L 142.14 -5.04 Z M 173.89 0 L 149 0 L 149 -24.88 L 173.89 -24.88 L 173.89 -19.98 L 153.91 -19.98 L 153.91 -15.06 L 164.3 -15.06 L 164.3 -10.05 L 153.91 -10.05 L 153.91 -5.01 L 173.89 -5.01 Z M 216.74 0 L 211.7 0 L 211.7 -24.92 L 229.13 -24.92 C 233.26 -24.37 236.63 -20.83 236.63 -16.66 L 236.63 -16.3 L 236.63 -15.96 C 236.63 -13.19 235.02 -10.41 232.73 -8.96 L 236.73 0 L 231.23 0 L 227.92 -7.55 L 216.74 -7.55 Z M 216.74 -20.1 L 216.74 -12.6 L 227.92 -12.6 C 229.98 -12.6 231.69 -14.17 231.69 -16.3 C 231.69 -18.25 229.9 -20.1 227.92 -20.1 Z M 253.87 0 L 243.96 -24.88 L 249.29 -24.88 L 256.38 -7.28 L 263.42 -24.88 L 268.74 -24.88 L 258.84 0 Z M 305.15 0 L 305.15 -24.92 L 321.28 -24.92 C 323.66 -24.92 325.83 -23.86 327.42 -22.27 C 329.01 -20.76 329.96 -18.66 329.96 -16.13 L 329.96 -8.68 C 329.96 -4.02 326.14 0 321.28 0 Z M 310.12 -19.88 L 310.12 -4.97 L 321.28 -4.97 C 323.28 -4.97 325.04 -6.6 325.04 -8.68 L 325.04 -16.13 C 325.04 -18.06 323.26 -19.88 321.28 -19.88 Z M 363.56 0 L 338.68 0 L 338.68 -24.88 L 363.56 -24.88 L 363.56 -19.98 L 343.58 -19.98 L 343.58 -15.06 L 353.97 -15.06 L 353.97 -10.05 L 343.58 -10.05 L 343.58 -5.01 L 363.56 -5.01 Z M 381.16 -19.98 L 371.21 -19.98 L 371.21 -24.85 L 396.06 -24.85 L 396.06 -19.98 L 386.13 -19.98 L 386.13 0 L 381.16 0 Z M 407.74 0 L 402.34 0 L 412.12 -24.95 L 417.54 -24.95 L 427.38 0 L 421.98 0 L 420.51 -3.67 L 409.25 -3.67 Z M 411.18 -8.75 L 418.56 -8.75 L 414.89 -18.17 Z M 440.04 0 L 435.1 0 L 435.1 -24.92 L 440.04 -24.92 Z M 473.99 0 L 449.06 0 L 449.06 -24.92 L 454 -24.92 L 454 -5.04 L 473.99 -5.04 Z M 505.74 0 L 480.86 0 L 480.86 -24.88 L 505.74 -24.88 L 505.74 -19.98 L 485.76 -19.98 L 485.76 -15.06 L 496.16 -15.06 L 496.16 -10.05 L 485.76 -10.05 L 485.76 -5.01 L 505.74 -5.01 Z M 519.87 0 L 514.83 0 L 514.83 -24.92 L 532.26 -24.92 C 536.4 -24.37 539.76 -20.83 539.76 -16.66 L 539.76 -16.3 L 539.76 -15.96 C 539.76 -13.19 538.16 -10.41 535.87 -8.96 L 539.87 0 L 534.36 0 L 531.05 -7.55 L 519.87 -7.55 Z M 519.87 -20.1 L 519.87 -12.6 L 531.05 -12.6 C 533.12 -12.6 534.83 -14.17 534.83 -16.3 C 534.83 -18.25 533.03 -20.1 531.05 -20.1 Z M 553.06 -7.49 C 553.06 -6.19 554.27 -4.97 555.57 -4.97 L 565.65 -4.97 C 566.68 -4.97 568.13 -5.84 568.13 -7.49 C 568.13 -8.99 566.86 -9.98 565.65 -9.98 L 555.57 -9.98 C 551.28 -9.98 548.08 -13.33 548.08 -17.47 C 548.08 -21.74 551.47 -24.95 555.57 -24.95 L 565.65 -24.95 C 569.58 -24.95 573.14 -21.86 573.14 -17.47 L 568.13 -17.47 C 568.13 -19.11 566.66 -20.06 565.65 -20.06 L 555.57 -20.06 C 554.22 -20.06 553.06 -18.73 553.06 -17.47 C 553.06 -16.12 554.22 -14.99 555.57 -14.99 L 565.65 -14.99 C 569.65 -14.99 573.14 -11.74 573.14 -7.49 C 573.14 -3.16 569.63 0 565.65 0 L 555.57 0 C 551.24 0 548.08 -3.33 548.08 -7.49 Z" stroke-linecap="round" />
</g>
</g>
</g>
</svg>