<svg xmlns="http://www.w3.org/2000/svg" width="1800" height="1200" viewBox="0 0 1800 1200" role="img" aria-labelledby="title desc">
  <title id="title">Hero RV photo placeholder</title>
  <desc id="desc">Temporary branded placeholder for a real Mobile RV Detailers hero photo.</desc>
  <defs>
    <linearGradient id="bg" x1="0" x2="1" y1="0" y2="1">
      <stop offset="0" stop-color="#0B0D10"/>
      <stop offset="0.5" stop-color="#171B21"/>
      <stop offset="1" stop-color="#2B1114"/>
    </linearGradient>
    <linearGradient id="rv" x1="0" x2="1">
      <stop offset="0" stop-color="#F7F5EF"/>
      <stop offset="1" stop-color="#BFC5CC"/>
    </linearGradient>
  </defs>
  <rect width="1800" height="1200" fill="url(#bg)"/>
  <path d="M0 805c210-88 418-122 625-100 197 20 350 84 535 103 239 25 433-46 640-133v525H0Z" fill="#12161B"/>
  <path d="M285 682h925c70 0 127-57 127-127V383H458c-96 0-173 78-173 173v126Z" fill="url(#rv)" opacity="0.95"/>
  <path d="M442 428h227v133H395v-86c0-26 21-47 47-47Zm288 0h238v133H730Zm300 0h196v133h-196Z" fill="#11161C"/>
  <path d="M340 718h830l-80 142H420Z" fill="#E8E6DE"/>
  <circle cx="503" cy="866" r="68" fill="#090B0E"/>
  <circle cx="503" cy="866" r="33" fill="#D71920"/>
  <circle cx="1008" cy="866" r="68" fill="#090B0E"/>
  <circle cx="1008" cy="866" r="33" fill="#D71920"/>
  <path d="M285 653h1052v29H285Z" fill="#D71920"/>
  <path d="M1280 305h154l58 78h-212z" fill="#D71920"/>
  <text x="108" y="154" fill="#F8F7F2" font-family="Arial, sans-serif" font-size="34" font-weight="800">REAL RV HERO PHOTO NEEDED</text>
  <text x="108" y="202" fill="#D8D4C9" font-family="Arial, sans-serif" font-size="22" font-weight="600">Temporary local placeholder - replace before launch</text>
</svg>
