<svg xmlns="http://www.w3.org/2000/svg" width="1400" height="900" viewBox="0 0 1400 900" role="img" aria-labelledby="title desc">
  <title id="title">Before and after proof photo placeholder</title>
  <desc id="desc">Temporary placeholder for real before and after RV detailing proof photos.</desc>
  <rect width="1400" height="900" fill="#0B0D10"/>
  <rect x="64" y="84" width="590" height="630" rx="8" fill="#242930"/>
  <rect x="746" y="84" width="590" height="630" rx="8" fill="#F7F5EF"/>
  <path d="M130 425h398c34 0 62-28 62-62v-85H218c-49 0-88 40-88 88v59Z" fill="#6B7178"/>
  <path d="M812 425h398c34 0 62-28 62-62v-85H900c-49 0-88 40-88 88v59Z" fill="#D9D7CE"/>
  <path d="M130 454h460v30H130Z" fill="#3A4048"/>
  <path d="M812 454h460v30H812Z" fill="#D71920"/>
  <circle cx="232" cy="523" r="45" fill="#11161C"/>
  <circle cx="491" cy="523" r="45" fill="#11161C"/>
  <circle cx="914" cy="523" r="45" fill="#11161C"/>
  <circle cx="1173" cy="523" r="45" fill="#11161C"/>
  <text x="282" y="786" text-anchor="middle" fill="#F8F7F2" font-family="Arial, sans-serif" font-size="36" font-weight="800">BEFORE</text>
  <text x="1044" y="786" text-anchor="middle" fill="#0B0D10" font-family="Arial, sans-serif" font-size="36" font-weight="800">AFTER</text>
  <text x="700" y="845" text-anchor="middle" fill="#D8D4C9" font-family="Arial, sans-serif" font-size="22" font-weight="700">REAL CUSTOMER RESULT PHOTOS NEEDED</text>
</svg>
