<svg xmlns="http://www.w3.org/2000/svg" width="900" height="620" viewBox="0 0 900 620" role="img" aria-labelledby="title desc">
  <title id="title">Bug and tar removal placeholder</title>
  <desc id="desc">Temporary placeholder for RV bug and tar removal photo.</desc>
  <rect width="900" height="620" fill="#171B21"/>
  <path d="M155 370h580c42 0 76-34 76-76V178H277c-67 0-122 55-122 122v70Z" fill="#F7F5EF"/>
  <path d="M220 230h168v94H205v-79c0-8 7-15 15-15Zm213 0h166v94H433Z" fill="#11161C"/>
  <path d="M155 389h656v25H155Z" fill="#D71920"/>
  <circle cx="292" cy="462" r="45" fill="#07090B"/>
  <circle cx="660" cy="462" r="45" fill="#07090B"/>
  <circle cx="728" cy="252" r="13" fill="#3B2A17"/>
  <circle cx="690" cy="309" r="9" fill="#3B2A17"/>
  <circle cx="765" cy="329" r="12" fill="#3B2A17"/>
  <text x="74" y="560" fill="#F8F7F2" font-family="Arial, sans-serif" font-size="34" font-weight="800">BUG / TAR REMOVAL PHOTO NEEDED</text>
</svg>
