<svg xmlns="http://www.w3.org/2000/svg" viewBox="0 0 64 64" role="img" aria-label="Google Reviews">
  <circle cx="32" cy="32" r="32" fill="#fff"/>
  <path fill="#4285F4" d="M47.5 31.4c0-1.1-.1-2-.3-2.9H32v5.6h8.9c-.2 1.5-1.3 3.5-3.4 4.9v3.6h4.8c2.8-2.6 5.2-6.3 5.2-11.2z"/>
  <path fill="#34A853" d="M32 47c4.1 0 7.5-1.3 10-3.7l-4.8-3.6c-1.3.9-3 1.5-5.2 1.5-4 0-7.4-2.7-8.6-6.3h-5v3.8C21 43.6 26.1 47 32 47z"/>
  <path fill="#FBBC05" d="M23.4 34.9c-.3-.9-.5-1.9-.5-2.9s.2-2 .5-2.9v-3.8h-5c-1 2-1.6 4.2-1.6 6.7s.6 4.7 1.6 6.7l5-3.8z"/>
  <path fill="#EA4335" d="M32 22.8c2.8 0 4.7 1.2 5.8 2.2l4.3-4.2C39.5 18.4 36 17 32 17c-5.9 0-11 3.4-13.6 8.3l5 3.8c1.2-3.6 4.6-6.3 8.6-6.3z"/>
  <path fill="#FBBC05" d="m47.8 49.4-3.1-1.7-3.1 1.7.6-3.5-2.5-2.5 3.5-.5 1.5-3.2 1.6 3.2 3.5.5-2.5 2.5.5 3.5z"/>
</svg>
