<svg xmlns="http://www.w3.org/2000/svg" viewBox="0 0 64 64" role="img" aria-label="Google">
  <circle cx="32" cy="32" r="32" fill="#fff"/>
  <path fill="#4285F4" d="M51.2 32.6c0-1.4-.1-2.5-.4-3.7H32v7.1h11c-.2 1.8-1.4 4.5-4.1 6.3v4.6h6.1c3.6-3.3 6.2-8.1 6.2-14.3z"/>
  <path fill="#34A853" d="M32 52c5.1 0 9.5-1.7 12.7-4.7l-6.1-4.6c-1.6 1.1-3.8 1.9-6.6 1.9-5.1 0-9.4-3.4-10.9-8h-6.3v4.8C18 47.7 24.5 52 32 52z"/>
  <path fill="#FBBC05" d="M21.1 36.6c-.4-1.1-.6-2.3-.6-3.6s.2-2.5.6-3.6v-4.8h-6.3c-1.3 2.5-2 5.3-2 8.4s.7 5.9 2 8.4l6.3-4.8z"/>
  <path fill="#EA4335" d="M32 21.4c3.6 0 6 1.5 7.4 2.8l5.4-5.3C41.5 15.9 37.1 14 32 14c-7.5 0-14 4.3-17.2 10.6l6.3 4.8c1.5-4.6 5.8-8 10.9-8z"/>
</svg>
