<svg xmlns="http://www.w3.org/2000/svg" viewBox="0 0 64 64" role="img" aria-labelledby="title">
  <title id="title">Yelp</title>
  <rect width="64" height="64" rx="16" fill="#D32323"/>
  <path fill="#fff" d="M30.3 8.3c2.9-.7 6.2.7 7.4 3.5l.2.5-6.4 18.9c-.3.9-1.6.9-1.9 0L23.3 12c1.2-2.6 3.8-3.7 7-3.7zM44.8 20.1c2.7 1.4 4.2 4.5 3.3 7.5l-.2.5-15.1 8.2c-.8.4-1.7-.5-1.2-1.3l9.1-14.4c1.4-1.4 3.3-1.6 4.1-.5zM50.6 39.5c.5 3-1.3 5.9-4.2 6.9l-.5.1-15.3-5.2c-.9-.3-.9-1.6 0-1.9l15.3-5.4c2.3.4 4.1 2.1 4.7 5.5zM38.3 52.7c-1.8 2.5-5.2 3.3-7.9 1.8l-.4-.3-3.1-15.8c-.2-.9 1-1.5 1.7-.8l11.6 11.3c.2 2-.2 3.8-1.9 3.8zM17.5 47.5c-2.9-.9-4.8-3.7-4.5-6.8v-.5l13.2-9.5c.8-.5 1.8.3 1.4 1.1l-7.2 14.6c-1.2.9-2.5 1.4-2.9 1.1z"/>
</svg>
